<mxfile host="app.diagrams.net" modified="2021-05-10T09:39:13.579Z" agent="5.0 (Windows NT 10.0; Win64; x64) AppleWebKit/537.36 (KHTML, like Gecko) Chrome/90.0.4430.93 Safari/537.36" etag="ZyAzg-WfvZygmzPU6y0b" version="14.6.11" type="github">
  <diagram id="ngQkEetFLuscZ1ZEEyn4" name="Page-1">
    <mxGraphModel dx="1409" dy="1883" grid="1" gridSize="10" guides="1" tooltips="1" connect="1" arrows="1" fold="1" page="1" pageScale="1" pageWidth="850" pageHeight="1100" math="0" shadow="0">
      <root>
        <mxCell id="0" />
        <mxCell id="1" parent="0" />
        <mxCell id="XE-EVSWouY0JqciqB7B_-1" value="&lt;font style=&quot;font-size: 18px&quot;&gt;&lt;b&gt;8&lt;/b&gt;&lt;/font&gt;" style="rounded=0;whiteSpace=wrap;html=1;fillColor=#B2C9AB;strokeColor=#788AA3;fontColor=#46495D;" parent="1" vertex="1">
          <mxGeometry x="160" y="-960" width="60" height="40" as="geometry" />
        </mxCell>
        <mxCell id="XE-EVSWouY0JqciqB7B_-2" value="&lt;font style=&quot;font-size: 18px&quot;&gt;&lt;b&gt;10&lt;/b&gt;&lt;/font&gt;" style="rounded=0;whiteSpace=wrap;html=1;fillColor=#B2C9AB;strokeColor=#788AA3;fontColor=#46495D;" parent="1" vertex="1">
          <mxGeometry x="220" y="-960" width="60" height="40" as="geometry" />
        </mxCell>
        <mxCell id="XE-EVSWouY0JqciqB7B_-3" value="&lt;font style=&quot;font-size: 18px&quot;&gt;&lt;b&gt;2&lt;/b&gt;&lt;/font&gt;" style="rounded=0;whiteSpace=wrap;html=1;fillColor=#B2C9AB;strokeColor=#788AA3;fontColor=#46495D;" parent="1" vertex="1">
          <mxGeometry x="280" y="-960" width="60" height="40" as="geometry" />
        </mxCell>
        <mxCell id="XE-EVSWouY0JqciqB7B_-4" value="&lt;font style=&quot;font-size: 18px&quot;&gt;&lt;b&gt;5&lt;/b&gt;&lt;/font&gt;" style="rounded=0;whiteSpace=wrap;html=1;fillColor=#B2C9AB;strokeColor=#788AA3;fontColor=#46495D;" parent="1" vertex="1">
          <mxGeometry x="640" y="-960" width="60" height="40" as="geometry" />
        </mxCell>
        <mxCell id="XE-EVSWouY0JqciqB7B_-5" value="&lt;font style=&quot;font-size: 18px&quot;&gt;&lt;b&gt;9&lt;/b&gt;&lt;/font&gt;" style="rounded=0;whiteSpace=wrap;html=1;fillColor=#B2C9AB;strokeColor=#788AA3;fontColor=#46495D;" parent="1" vertex="1">
          <mxGeometry x="580" y="-960" width="60" height="40" as="geometry" />
        </mxCell>
        <mxCell id="XE-EVSWouY0JqciqB7B_-6" value="&lt;font style=&quot;font-size: 18px&quot;&gt;&lt;b&gt;6&lt;/b&gt;&lt;/font&gt;" style="rounded=0;whiteSpace=wrap;html=1;fillColor=#B2C9AB;strokeColor=#788AA3;fontColor=#46495D;" parent="1" vertex="1">
          <mxGeometry x="520" y="-960" width="60" height="40" as="geometry" />
        </mxCell>
        <mxCell id="XE-EVSWouY0JqciqB7B_-7" value="&lt;font style=&quot;font-size: 18px&quot;&gt;&lt;b&gt;3&lt;/b&gt;&lt;/font&gt;" style="rounded=0;whiteSpace=wrap;html=1;fillColor=#B2C9AB;strokeColor=#788AA3;fontColor=#46495D;" parent="1" vertex="1">
          <mxGeometry x="460" y="-960" width="60" height="40" as="geometry" />
        </mxCell>
        <mxCell id="XE-EVSWouY0JqciqB7B_-8" value="&lt;font style=&quot;font-size: 18px&quot;&gt;&lt;b&gt;12&lt;/b&gt;&lt;/font&gt;" style="rounded=0;whiteSpace=wrap;html=1;fillColor=#B2C9AB;strokeColor=#788AA3;fontColor=#46495D;" parent="1" vertex="1">
          <mxGeometry x="400" y="-960" width="60" height="40" as="geometry" />
        </mxCell>
        <mxCell id="XE-EVSWouY0JqciqB7B_-9" value="&lt;font style=&quot;font-size: 18px&quot;&gt;&lt;b&gt;10&lt;/b&gt;&lt;/font&gt;" style="rounded=0;whiteSpace=wrap;html=1;fillColor=#B2C9AB;strokeColor=#788AA3;fontColor=#46495D;" parent="1" vertex="1">
          <mxGeometry x="340" y="-960" width="60" height="40" as="geometry" />
        </mxCell>
        <mxCell id="XE-EVSWouY0JqciqB7B_-11" value="&lt;font style=&quot;font-size: 18px&quot;&gt;&lt;b&gt;10&lt;/b&gt;&lt;/font&gt;" style="rounded=0;whiteSpace=wrap;html=1;fillColor=#B2C9AB;strokeColor=#788AA3;fontColor=#46495D;" parent="1" vertex="1">
          <mxGeometry x="200" y="-880" width="60" height="40" as="geometry" />
        </mxCell>
        <mxCell id="XE-EVSWouY0JqciqB7B_-12" value="&lt;font style=&quot;font-size: 18px&quot;&gt;&lt;b&gt;2&lt;/b&gt;&lt;/font&gt;" style="rounded=0;whiteSpace=wrap;html=1;fillColor=#B2C9AB;strokeColor=#788AA3;fontColor=#46495D;" parent="1" vertex="1">
          <mxGeometry x="260" y="-880" width="60" height="40" as="geometry" />
        </mxCell>
        <mxCell id="XE-EVSWouY0JqciqB7B_-13" value="&lt;font style=&quot;font-size: 18px&quot;&gt;&lt;b&gt;10&lt;/b&gt;&lt;/font&gt;" style="rounded=0;whiteSpace=wrap;html=1;fillColor=#B2C9AB;strokeColor=#788AA3;fontColor=#46495D;" parent="1" vertex="1">
          <mxGeometry x="320" y="-880" width="60" height="40" as="geometry" />
        </mxCell>
        <mxCell id="XE-EVSWouY0JqciqB7B_-14" value="&lt;font style=&quot;font-size: 18px&quot;&gt;&lt;b&gt;5&lt;/b&gt;&lt;/font&gt;" style="rounded=0;whiteSpace=wrap;html=1;fillColor=#B2C9AB;strokeColor=#788AA3;fontColor=#46495D;" parent="1" vertex="1">
          <mxGeometry x="660" y="-880" width="60" height="40" as="geometry" />
        </mxCell>
        <mxCell id="XE-EVSWouY0JqciqB7B_-15" value="&lt;font style=&quot;font-size: 18px&quot;&gt;&lt;b&gt;9&lt;/b&gt;&lt;/font&gt;" style="rounded=0;whiteSpace=wrap;html=1;fillColor=#B2C9AB;strokeColor=#788AA3;fontColor=#46495D;" parent="1" vertex="1">
          <mxGeometry x="600" y="-880" width="60" height="40" as="geometry" />
        </mxCell>
        <mxCell id="XE-EVSWouY0JqciqB7B_-16" value="&lt;font style=&quot;font-size: 18px&quot;&gt;&lt;b&gt;6&lt;/b&gt;&lt;/font&gt;" style="rounded=0;whiteSpace=wrap;html=1;fillColor=#B2C9AB;strokeColor=#788AA3;fontColor=#46495D;" parent="1" vertex="1">
          <mxGeometry x="540" y="-880" width="60" height="40" as="geometry" />
        </mxCell>
        <mxCell id="XE-EVSWouY0JqciqB7B_-17" value="&lt;font style=&quot;font-size: 18px&quot;&gt;&lt;b&gt;3&lt;/b&gt;&lt;/font&gt;" style="rounded=0;whiteSpace=wrap;html=1;fillColor=#B2C9AB;strokeColor=#788AA3;fontColor=#46495D;" parent="1" vertex="1">
          <mxGeometry x="480" y="-880" width="60" height="40" as="geometry" />
        </mxCell>
        <mxCell id="XE-EVSWouY0JqciqB7B_-18" value="&lt;font style=&quot;font-size: 18px&quot;&gt;&lt;b&gt;8&lt;/b&gt;&lt;/font&gt;" style="rounded=0;whiteSpace=wrap;html=1;fillColor=#B2C9AB;strokeColor=#788AA3;fontColor=#46495D;" parent="1" vertex="1">
          <mxGeometry x="140" y="-880" width="60" height="40" as="geometry" />
        </mxCell>
        <mxCell id="XE-EVSWouY0JqciqB7B_-19" value="&lt;font style=&quot;font-size: 18px&quot;&gt;&lt;b&gt;12&lt;/b&gt;&lt;/font&gt;" style="rounded=0;whiteSpace=wrap;html=1;fillColor=#B2C9AB;strokeColor=#788AA3;fontColor=#46495D;" parent="1" vertex="1">
          <mxGeometry x="380" y="-880" width="60" height="40" as="geometry" />
        </mxCell>
        <mxCell id="XE-EVSWouY0JqciqB7B_-20" value="&lt;font style=&quot;font-size: 18px&quot;&gt;&lt;b&gt;10&lt;/b&gt;&lt;/font&gt;" style="rounded=0;whiteSpace=wrap;html=1;fillColor=#B2C9AB;strokeColor=#788AA3;fontColor=#46495D;" parent="1" vertex="1">
          <mxGeometry x="160" y="-800" width="60" height="40" as="geometry" />
        </mxCell>
        <mxCell id="XE-EVSWouY0JqciqB7B_-21" value="&lt;font style=&quot;font-size: 18px&quot;&gt;&lt;b&gt;2&lt;/b&gt;&lt;/font&gt;" style="rounded=0;whiteSpace=wrap;html=1;fillColor=#B2C9AB;strokeColor=#788AA3;fontColor=#46495D;" parent="1" vertex="1">
          <mxGeometry x="220" y="-800" width="60" height="40" as="geometry" />
        </mxCell>
        <mxCell id="XE-EVSWouY0JqciqB7B_-22" value="&lt;font style=&quot;font-size: 18px&quot;&gt;&lt;b&gt;10&lt;/b&gt;&lt;/font&gt;" style="rounded=0;whiteSpace=wrap;html=1;fillColor=#B2C9AB;strokeColor=#788AA3;fontColor=#46495D;" parent="1" vertex="1">
          <mxGeometry x="320" y="-800" width="60" height="40" as="geometry" />
        </mxCell>
        <mxCell id="XE-EVSWouY0JqciqB7B_-23" value="&lt;font style=&quot;font-size: 18px&quot;&gt;&lt;b&gt;8&lt;/b&gt;&lt;/font&gt;" style="rounded=0;whiteSpace=wrap;html=1;fillColor=#B2C9AB;strokeColor=#788AA3;fontColor=#46495D;" parent="1" vertex="1">
          <mxGeometry x="100" y="-800" width="60" height="40" as="geometry" />
        </mxCell>
        <mxCell id="XE-EVSWouY0JqciqB7B_-24" value="&lt;font style=&quot;font-size: 18px&quot;&gt;&lt;b&gt;12&lt;/b&gt;&lt;/font&gt;" style="rounded=0;whiteSpace=wrap;html=1;fillColor=#B2C9AB;strokeColor=#788AA3;fontColor=#46495D;" parent="1" vertex="1">
          <mxGeometry x="380" y="-800" width="60" height="40" as="geometry" />
        </mxCell>
        <mxCell id="XE-EVSWouY0JqciqB7B_-25" value="&lt;font style=&quot;font-size: 18px&quot;&gt;&lt;b&gt;5&lt;/b&gt;&lt;/font&gt;" style="rounded=0;whiteSpace=wrap;html=1;fillColor=#B2C9AB;strokeColor=#788AA3;fontColor=#46495D;" parent="1" vertex="1">
          <mxGeometry x="700" y="-800" width="60" height="40" as="geometry" />
        </mxCell>
        <mxCell id="XE-EVSWouY0JqciqB7B_-26" value="&lt;font style=&quot;font-size: 18px&quot;&gt;&lt;b&gt;9&lt;/b&gt;&lt;/font&gt;" style="rounded=0;whiteSpace=wrap;html=1;fillColor=#B2C9AB;strokeColor=#788AA3;fontColor=#46495D;" parent="1" vertex="1">
          <mxGeometry x="640" y="-800" width="60" height="40" as="geometry" />
        </mxCell>
        <mxCell id="XE-EVSWouY0JqciqB7B_-27" value="&lt;font style=&quot;font-size: 18px&quot;&gt;&lt;b&gt;6&lt;/b&gt;&lt;/font&gt;" style="rounded=0;whiteSpace=wrap;html=1;fillColor=#B2C9AB;strokeColor=#788AA3;fontColor=#46495D;" parent="1" vertex="1">
          <mxGeometry x="540" y="-800" width="60" height="40" as="geometry" />
        </mxCell>
        <mxCell id="XE-EVSWouY0JqciqB7B_-28" value="&lt;font style=&quot;font-size: 18px&quot;&gt;&lt;b&gt;3&lt;/b&gt;&lt;/font&gt;" style="rounded=0;whiteSpace=wrap;html=1;fillColor=#B2C9AB;strokeColor=#788AA3;fontColor=#46495D;" parent="1" vertex="1">
          <mxGeometry x="480" y="-800" width="60" height="40" as="geometry" />
        </mxCell>
        <mxCell id="XE-EVSWouY0JqciqB7B_-29" value="&lt;font style=&quot;font-size: 18px&quot;&gt;&lt;b&gt;8&lt;/b&gt;&lt;/font&gt;" style="rounded=0;whiteSpace=wrap;html=1;fillColor=#B2C9AB;strokeColor=#788AA3;fontColor=#46495D;" parent="1" vertex="1">
          <mxGeometry x="20" y="-720" width="60" height="40" as="geometry" />
        </mxCell>
        <mxCell id="XE-EVSWouY0JqciqB7B_-30" value="&lt;font style=&quot;font-size: 18px&quot;&gt;&lt;b&gt;2&lt;/b&gt;&lt;/font&gt;" style="rounded=0;whiteSpace=wrap;html=1;fillColor=#B2C9AB;strokeColor=#788AA3;fontColor=#46495D;" parent="1" vertex="1">
          <mxGeometry x="180" y="-720" width="60" height="40" as="geometry" />
        </mxCell>
        <mxCell id="XE-EVSWouY0JqciqB7B_-31" value="&lt;font style=&quot;font-size: 18px&quot;&gt;&lt;b&gt;10&lt;/b&gt;&lt;/font&gt;" style="rounded=0;whiteSpace=wrap;html=1;fillColor=#B2C9AB;strokeColor=#788AA3;fontColor=#46495D;" parent="1" vertex="1">
          <mxGeometry x="80" y="-720" width="60" height="40" as="geometry" />
        </mxCell>
        <mxCell id="XE-EVSWouY0JqciqB7B_-33" value="&lt;font style=&quot;font-size: 18px&quot;&gt;&lt;b&gt;10&lt;/b&gt;&lt;/font&gt;" style="rounded=0;whiteSpace=wrap;html=1;fillColor=#B2C9AB;strokeColor=#788AA3;fontColor=#46495D;" parent="1" vertex="1">
          <mxGeometry x="280" y="-720" width="60" height="40" as="geometry" />
        </mxCell>
        <mxCell id="XE-EVSWouY0JqciqB7B_-34" value="&lt;font style=&quot;font-size: 18px&quot;&gt;&lt;b&gt;12&lt;/b&gt;&lt;/font&gt;" style="rounded=0;whiteSpace=wrap;html=1;fillColor=#B2C9AB;strokeColor=#788AA3;fontColor=#46495D;" parent="1" vertex="1">
          <mxGeometry x="380" y="-720" width="60" height="40" as="geometry" />
        </mxCell>
        <mxCell id="XE-EVSWouY0JqciqB7B_-35" value="&lt;font style=&quot;font-size: 18px&quot;&gt;&lt;b&gt;3&lt;/b&gt;&lt;/font&gt;" style="rounded=0;whiteSpace=wrap;html=1;fillColor=#B2C9AB;strokeColor=#788AA3;fontColor=#46495D;" parent="1" vertex="1">
          <mxGeometry x="480" y="-720" width="60" height="40" as="geometry" />
        </mxCell>
        <mxCell id="XE-EVSWouY0JqciqB7B_-36" value="&lt;font style=&quot;font-size: 18px&quot;&gt;&lt;b&gt;6&lt;/b&gt;&lt;/font&gt;" style="rounded=0;whiteSpace=wrap;html=1;fillColor=#B2C9AB;strokeColor=#788AA3;fontColor=#46495D;" parent="1" vertex="1">
          <mxGeometry x="580" y="-720" width="60" height="40" as="geometry" />
        </mxCell>
        <mxCell id="XE-EVSWouY0JqciqB7B_-37" value="&lt;font style=&quot;font-size: 18px&quot;&gt;&lt;b&gt;9&lt;/b&gt;&lt;/font&gt;" style="rounded=0;whiteSpace=wrap;html=1;fillColor=#B2C9AB;strokeColor=#788AA3;fontColor=#46495D;" parent="1" vertex="1">
          <mxGeometry x="680" y="-720" width="60" height="40" as="geometry" />
        </mxCell>
        <mxCell id="XE-EVSWouY0JqciqB7B_-38" value="&lt;font style=&quot;font-size: 18px&quot;&gt;&lt;b&gt;8&lt;/b&gt;&lt;/font&gt;" style="rounded=0;whiteSpace=wrap;html=1;fillColor=#B2C9AB;strokeColor=#788AA3;fontColor=#46495D;" parent="1" vertex="1">
          <mxGeometry x="10" y="-640" width="60" height="40" as="geometry" />
        </mxCell>
        <mxCell id="XE-EVSWouY0JqciqB7B_-40" value="&lt;font style=&quot;font-size: 18px&quot;&gt;&lt;b&gt;10&lt;/b&gt;&lt;/font&gt;" style="rounded=0;whiteSpace=wrap;html=1;fillColor=#B2C9AB;strokeColor=#788AA3;fontColor=#46495D;" parent="1" vertex="1">
          <mxGeometry x="110" y="-640" width="60" height="40" as="geometry" />
        </mxCell>
        <mxCell id="XE-EVSWouY0JqciqB7B_-41" value="&lt;font style=&quot;font-size: 18px&quot;&gt;&lt;b&gt;5&lt;/b&gt;&lt;/font&gt;" style="rounded=0;whiteSpace=wrap;html=1;fillColor=#B2C9AB;strokeColor=#788AA3;fontColor=#46495D;" parent="1" vertex="1">
          <mxGeometry x="780" y="-720" width="60" height="40" as="geometry" />
        </mxCell>
        <mxCell id="_cYdw8GzFOG9qHdIJb85-2" value="" style="endArrow=classic;html=1;entryX=0.25;entryY=0;entryDx=0;entryDy=0;exitX=0.5;exitY=1;exitDx=0;exitDy=0;strokeColor=#788AA3;fontColor=#46495D;" edge="1" parent="1">
          <mxGeometry width="50" height="50" relative="1" as="geometry">
            <mxPoint x="455" y="-920" as="sourcePoint" />
            <mxPoint x="420" y="-880" as="targetPoint" />
          </mxGeometry>
        </mxCell>
        <mxCell id="_cYdw8GzFOG9qHdIJb85-3" value="" style="endArrow=classic;html=1;exitX=0.5;exitY=1;exitDx=0;exitDy=0;strokeColor=#788AA3;fontColor=#46495D;" edge="1" parent="1">
          <mxGeometry width="50" height="50" relative="1" as="geometry">
            <mxPoint x="467.5" y="-920" as="sourcePoint" />
            <mxPoint x="502.5" y="-880" as="targetPoint" />
          </mxGeometry>
        </mxCell>
        <mxCell id="_cYdw8GzFOG9qHdIJb85-4" value="" style="endArrow=classic;html=1;exitX=0.5;exitY=1;exitDx=0;exitDy=0;strokeColor=#788AA3;fontColor=#46495D;" edge="1" parent="1">
          <mxGeometry width="50" height="50" relative="1" as="geometry">
            <mxPoint x="305" y="-840" as="sourcePoint" />
            <mxPoint x="340" y="-800" as="targetPoint" />
          </mxGeometry>
        </mxCell>
        <mxCell id="_cYdw8GzFOG9qHdIJb85-5" value="" style="endArrow=classic;html=1;entryX=0.25;entryY=0;entryDx=0;entryDy=0;exitX=0.5;exitY=1;exitDx=0;exitDy=0;strokeColor=#788AA3;fontColor=#46495D;" edge="1" parent="1">
          <mxGeometry width="50" height="50" relative="1" as="geometry">
            <mxPoint x="295" y="-840" as="sourcePoint" />
            <mxPoint x="260" y="-800" as="targetPoint" />
          </mxGeometry>
        </mxCell>
        <mxCell id="_cYdw8GzFOG9qHdIJb85-6" value="" style="endArrow=classic;html=1;exitX=0.5;exitY=1;exitDx=0;exitDy=0;strokeColor=#788AA3;fontColor=#46495D;" edge="1" parent="1">
          <mxGeometry width="50" height="50" relative="1" as="geometry">
            <mxPoint x="625.0000000000001" y="-840" as="sourcePoint" />
            <mxPoint x="660" y="-800" as="targetPoint" />
          </mxGeometry>
        </mxCell>
        <mxCell id="_cYdw8GzFOG9qHdIJb85-7" value="" style="endArrow=classic;html=1;entryX=0.25;entryY=0;entryDx=0;entryDy=0;exitX=0.5;exitY=1;exitDx=0;exitDy=0;strokeColor=#788AA3;fontColor=#46495D;" edge="1" parent="1">
          <mxGeometry width="50" height="50" relative="1" as="geometry">
            <mxPoint x="615.0000000000001" y="-840" as="sourcePoint" />
            <mxPoint x="580.0000000000001" y="-800" as="targetPoint" />
          </mxGeometry>
        </mxCell>
        <mxCell id="_cYdw8GzFOG9qHdIJb85-9" value="" style="endArrow=classic;html=1;exitX=0.5;exitY=1;exitDx=0;exitDy=0;strokeColor=#788AA3;fontColor=#46495D;" edge="1" parent="1">
          <mxGeometry width="50" height="50" relative="1" as="geometry">
            <mxPoint x="755" y="-760" as="sourcePoint" />
            <mxPoint x="790" y="-720" as="targetPoint" />
          </mxGeometry>
        </mxCell>
        <mxCell id="_cYdw8GzFOG9qHdIJb85-10" value="" style="endArrow=classic;html=1;entryX=0.25;entryY=0;entryDx=0;entryDy=0;exitX=0.5;exitY=1;exitDx=0;exitDy=0;strokeColor=#788AA3;fontColor=#46495D;" edge="1" parent="1">
          <mxGeometry width="50" height="50" relative="1" as="geometry">
            <mxPoint x="747.5" y="-760" as="sourcePoint" />
            <mxPoint x="712.5" y="-720" as="targetPoint" />
          </mxGeometry>
        </mxCell>
        <mxCell id="_cYdw8GzFOG9qHdIJb85-11" value="" style="endArrow=classic;html=1;exitX=0.5;exitY=1;exitDx=0;exitDy=0;strokeColor=#788AA3;fontColor=#46495D;" edge="1" parent="1">
          <mxGeometry width="50" height="50" relative="1" as="geometry">
            <mxPoint x="565" y="-760" as="sourcePoint" />
            <mxPoint x="600" y="-720" as="targetPoint" />
          </mxGeometry>
        </mxCell>
        <mxCell id="_cYdw8GzFOG9qHdIJb85-12" value="" style="endArrow=classic;html=1;entryX=0.25;entryY=0;entryDx=0;entryDy=0;exitX=0.5;exitY=1;exitDx=0;exitDy=0;strokeColor=#788AA3;fontColor=#46495D;" edge="1" parent="1">
          <mxGeometry width="50" height="50" relative="1" as="geometry">
            <mxPoint x="555" y="-760" as="sourcePoint" />
            <mxPoint x="520" y="-720" as="targetPoint" />
          </mxGeometry>
        </mxCell>
        <mxCell id="_cYdw8GzFOG9qHdIJb85-14" value="" style="endArrow=classic;html=1;exitX=0.5;exitY=1;exitDx=0;exitDy=0;strokeColor=#788AA3;fontColor=#46495D;" edge="1" parent="1">
          <mxGeometry width="50" height="50" relative="1" as="geometry">
            <mxPoint x="365" y="-760" as="sourcePoint" />
            <mxPoint x="400" y="-720" as="targetPoint" />
          </mxGeometry>
        </mxCell>
        <mxCell id="_cYdw8GzFOG9qHdIJb85-15" value="" style="endArrow=classic;html=1;entryX=0.25;entryY=0;entryDx=0;entryDy=0;exitX=0.5;exitY=1;exitDx=0;exitDy=0;strokeColor=#788AA3;fontColor=#46495D;" edge="1" parent="1">
          <mxGeometry width="50" height="50" relative="1" as="geometry">
            <mxPoint x="355" y="-760" as="sourcePoint" />
            <mxPoint x="320" y="-720" as="targetPoint" />
          </mxGeometry>
        </mxCell>
        <mxCell id="_cYdw8GzFOG9qHdIJb85-17" value="" style="endArrow=classic;html=1;exitX=0.5;exitY=1;exitDx=0;exitDy=0;strokeColor=#788AA3;fontColor=#46495D;" edge="1" parent="1">
          <mxGeometry width="50" height="50" relative="1" as="geometry">
            <mxPoint x="165" y="-760" as="sourcePoint" />
            <mxPoint x="200" y="-720" as="targetPoint" />
          </mxGeometry>
        </mxCell>
        <mxCell id="_cYdw8GzFOG9qHdIJb85-18" value="" style="endArrow=classic;html=1;entryX=0.25;entryY=0;entryDx=0;entryDy=0;exitX=0.5;exitY=1;exitDx=0;exitDy=0;strokeColor=#788AA3;fontColor=#46495D;" edge="1" parent="1">
          <mxGeometry width="50" height="50" relative="1" as="geometry">
            <mxPoint x="155" y="-760" as="sourcePoint" />
            <mxPoint x="120" y="-720" as="targetPoint" />
          </mxGeometry>
        </mxCell>
        <mxCell id="_cYdw8GzFOG9qHdIJb85-23" value="" style="endArrow=classic;html=1;exitX=0.5;exitY=1;exitDx=0;exitDy=0;strokeColor=#788AA3;fontColor=#46495D;" edge="1" parent="1">
          <mxGeometry width="50" height="50" relative="1" as="geometry">
            <mxPoint x="100" y="-680" as="sourcePoint" />
            <mxPoint x="135" y="-640" as="targetPoint" />
          </mxGeometry>
        </mxCell>
        <mxCell id="_cYdw8GzFOG9qHdIJb85-24" value="" style="endArrow=classic;html=1;entryX=0.25;entryY=0;entryDx=0;entryDy=0;exitX=0.5;exitY=1;exitDx=0;exitDy=0;strokeColor=#788AA3;fontColor=#46495D;" edge="1" parent="1">
          <mxGeometry width="50" height="50" relative="1" as="geometry">
            <mxPoint x="85" y="-680" as="sourcePoint" />
            <mxPoint x="50" y="-640" as="targetPoint" />
          </mxGeometry>
        </mxCell>
        <mxCell id="_cYdw8GzFOG9qHdIJb85-26" value="&lt;span style=&quot;font-size: 19px&quot;&gt;&lt;b&gt;Split&lt;/b&gt;&lt;/span&gt;" style="rounded=1;whiteSpace=wrap;html=1;arcSize=40;fillColor=#B2C9AB;strokeColor=#788AA3;fontColor=#46495D;strokeWidth=4;" vertex="1" parent="1">
          <mxGeometry x="30" y="-1040" width="100" height="40" as="geometry" />
        </mxCell>
        <mxCell id="_cYdw8GzFOG9qHdIJb85-45" value="&lt;font style=&quot;font-size: 18px&quot;&gt;&lt;b&gt;10&lt;/b&gt;&lt;/font&gt;" style="rounded=0;whiteSpace=wrap;html=1;fillColor=#B2C9AB;strokeColor=#788AA3;fontColor=#46495D;" vertex="1" parent="1">
          <mxGeometry x="230" y="-320" width="60" height="40" as="geometry" />
        </mxCell>
        <mxCell id="_cYdw8GzFOG9qHdIJb85-46" value="&lt;font style=&quot;font-size: 18px&quot;&gt;&lt;b&gt;2&lt;/b&gt;&lt;/font&gt;" style="rounded=0;whiteSpace=wrap;html=1;fillColor=#B2C9AB;strokeColor=#788AA3;fontColor=#46495D;" vertex="1" parent="1">
          <mxGeometry x="110" y="-320" width="60" height="40" as="geometry" />
        </mxCell>
        <mxCell id="_cYdw8GzFOG9qHdIJb85-47" value="&lt;font style=&quot;font-size: 18px&quot;&gt;&lt;b&gt;10&lt;/b&gt;&lt;/font&gt;" style="rounded=0;whiteSpace=wrap;html=1;fillColor=#B2C9AB;strokeColor=#788AA3;fontColor=#46495D;" vertex="1" parent="1">
          <mxGeometry x="330" y="-320" width="60" height="40" as="geometry" />
        </mxCell>
        <mxCell id="_cYdw8GzFOG9qHdIJb85-48" value="&lt;font style=&quot;font-size: 18px&quot;&gt;&lt;b&gt;8&lt;/b&gt;&lt;/font&gt;" style="rounded=0;whiteSpace=wrap;html=1;fillColor=#B2C9AB;strokeColor=#788AA3;fontColor=#46495D;" vertex="1" parent="1">
          <mxGeometry x="170" y="-320" width="60" height="40" as="geometry" />
        </mxCell>
        <mxCell id="_cYdw8GzFOG9qHdIJb85-49" value="&lt;font style=&quot;font-size: 18px&quot;&gt;&lt;b&gt;12&lt;/b&gt;&lt;/font&gt;" style="rounded=0;whiteSpace=wrap;html=1;fillColor=#B2C9AB;strokeColor=#788AA3;fontColor=#46495D;" vertex="1" parent="1">
          <mxGeometry x="390" y="-320" width="60" height="40" as="geometry" />
        </mxCell>
        <mxCell id="_cYdw8GzFOG9qHdIJb85-50" value="&lt;font style=&quot;font-size: 18px&quot;&gt;&lt;b&gt;5&lt;/b&gt;&lt;/font&gt;" style="rounded=0;whiteSpace=wrap;html=1;fillColor=#B2C9AB;strokeColor=#788AA3;fontColor=#46495D;" vertex="1" parent="1">
          <mxGeometry x="650" y="-320" width="60" height="40" as="geometry" />
        </mxCell>
        <mxCell id="_cYdw8GzFOG9qHdIJb85-51" value="&lt;font style=&quot;font-size: 18px&quot;&gt;&lt;b&gt;9&lt;/b&gt;&lt;/font&gt;" style="rounded=0;whiteSpace=wrap;html=1;fillColor=#B2C9AB;strokeColor=#788AA3;fontColor=#46495D;" vertex="1" parent="1">
          <mxGeometry x="710" y="-320" width="60" height="40" as="geometry" />
        </mxCell>
        <mxCell id="_cYdw8GzFOG9qHdIJb85-52" value="&lt;font style=&quot;font-size: 18px&quot;&gt;&lt;b&gt;6&lt;/b&gt;&lt;/font&gt;" style="rounded=0;whiteSpace=wrap;html=1;fillColor=#B2C9AB;strokeColor=#788AA3;fontColor=#46495D;" vertex="1" parent="1">
          <mxGeometry x="550" y="-320" width="60" height="40" as="geometry" />
        </mxCell>
        <mxCell id="_cYdw8GzFOG9qHdIJb85-53" value="&lt;font style=&quot;font-size: 18px&quot;&gt;&lt;b&gt;3&lt;/b&gt;&lt;/font&gt;" style="rounded=0;whiteSpace=wrap;html=1;fillColor=#B2C9AB;strokeColor=#788AA3;fontColor=#46495D;" vertex="1" parent="1">
          <mxGeometry x="490" y="-320" width="60" height="40" as="geometry" />
        </mxCell>
        <mxCell id="_cYdw8GzFOG9qHdIJb85-54" value="&lt;font style=&quot;font-size: 18px&quot;&gt;&lt;b&gt;8&lt;/b&gt;&lt;/font&gt;" style="rounded=0;whiteSpace=wrap;html=1;fillColor=#B2C9AB;strokeColor=#788AA3;fontColor=#46495D;" vertex="1" parent="1">
          <mxGeometry x="20" y="-400" width="60" height="40" as="geometry" />
        </mxCell>
        <mxCell id="_cYdw8GzFOG9qHdIJb85-55" value="&lt;font style=&quot;font-size: 18px&quot;&gt;&lt;b&gt;2&lt;/b&gt;&lt;/font&gt;" style="rounded=0;whiteSpace=wrap;html=1;fillColor=#B2C9AB;strokeColor=#788AA3;fontColor=#46495D;" vertex="1" parent="1">
          <mxGeometry x="175" y="-400" width="60" height="40" as="geometry" />
        </mxCell>
        <mxCell id="_cYdw8GzFOG9qHdIJb85-56" value="&lt;font style=&quot;font-size: 18px&quot;&gt;&lt;b&gt;10&lt;/b&gt;&lt;/font&gt;" style="rounded=0;whiteSpace=wrap;html=1;fillColor=#B2C9AB;strokeColor=#788AA3;fontColor=#46495D;" vertex="1" parent="1">
          <mxGeometry x="80" y="-400" width="60" height="40" as="geometry" />
        </mxCell>
        <mxCell id="_cYdw8GzFOG9qHdIJb85-57" value="&lt;font style=&quot;font-size: 18px&quot;&gt;&lt;b&gt;10&lt;/b&gt;&lt;/font&gt;" style="rounded=0;whiteSpace=wrap;html=1;fillColor=#B2C9AB;strokeColor=#788AA3;fontColor=#46495D;" vertex="1" parent="1">
          <mxGeometry x="270" y="-400" width="60" height="40" as="geometry" />
        </mxCell>
        <mxCell id="_cYdw8GzFOG9qHdIJb85-58" value="&lt;font style=&quot;font-size: 18px&quot;&gt;&lt;b&gt;12&lt;/b&gt;&lt;/font&gt;" style="rounded=0;whiteSpace=wrap;html=1;fillColor=#B2C9AB;strokeColor=#788AA3;fontColor=#46495D;" vertex="1" parent="1">
          <mxGeometry x="370" y="-400" width="60" height="40" as="geometry" />
        </mxCell>
        <mxCell id="_cYdw8GzFOG9qHdIJb85-59" value="&lt;font style=&quot;font-size: 18px&quot;&gt;&lt;b&gt;3&lt;/b&gt;&lt;/font&gt;" style="rounded=0;whiteSpace=wrap;html=1;fillColor=#B2C9AB;strokeColor=#788AA3;fontColor=#46495D;" vertex="1" parent="1">
          <mxGeometry x="470" y="-400" width="60" height="40" as="geometry" />
        </mxCell>
        <mxCell id="_cYdw8GzFOG9qHdIJb85-60" value="&lt;font style=&quot;font-size: 18px&quot;&gt;&lt;b&gt;6&lt;/b&gt;&lt;/font&gt;" style="rounded=0;whiteSpace=wrap;html=1;fillColor=#B2C9AB;strokeColor=#788AA3;fontColor=#46495D;" vertex="1" parent="1">
          <mxGeometry x="570" y="-400" width="60" height="40" as="geometry" />
        </mxCell>
        <mxCell id="_cYdw8GzFOG9qHdIJb85-61" value="&lt;font style=&quot;font-size: 18px&quot;&gt;&lt;b&gt;9&lt;/b&gt;&lt;/font&gt;" style="rounded=0;whiteSpace=wrap;html=1;fillColor=#B2C9AB;strokeColor=#788AA3;fontColor=#46495D;" vertex="1" parent="1">
          <mxGeometry x="670" y="-400" width="60" height="40" as="geometry" />
        </mxCell>
        <mxCell id="_cYdw8GzFOG9qHdIJb85-62" value="&lt;font style=&quot;font-size: 18px&quot;&gt;&lt;b&gt;8&lt;/b&gt;&lt;/font&gt;" style="rounded=0;whiteSpace=wrap;html=1;fillColor=#B2C9AB;strokeColor=#788AA3;fontColor=#46495D;" vertex="1" parent="1">
          <mxGeometry x="10" y="-480" width="60" height="40" as="geometry" />
        </mxCell>
        <mxCell id="_cYdw8GzFOG9qHdIJb85-63" value="&lt;font style=&quot;font-size: 18px&quot;&gt;&lt;b&gt;10&lt;/b&gt;&lt;/font&gt;" style="rounded=0;whiteSpace=wrap;html=1;fillColor=#B2C9AB;strokeColor=#788AA3;fontColor=#46495D;" vertex="1" parent="1">
          <mxGeometry x="110" y="-480" width="60" height="40" as="geometry" />
        </mxCell>
        <mxCell id="_cYdw8GzFOG9qHdIJb85-64" value="&lt;font style=&quot;font-size: 18px&quot;&gt;&lt;b&gt;5&lt;/b&gt;&lt;/font&gt;" style="rounded=0;whiteSpace=wrap;html=1;fillColor=#B2C9AB;strokeColor=#788AA3;fontColor=#46495D;" vertex="1" parent="1">
          <mxGeometry x="770" y="-400" width="60" height="40" as="geometry" />
        </mxCell>
        <mxCell id="_cYdw8GzFOG9qHdIJb85-81" value="&lt;span style=&quot;font-size: 19px&quot;&gt;&lt;b&gt;Merge&lt;/b&gt;&lt;/span&gt;" style="rounded=1;whiteSpace=wrap;html=1;arcSize=40;fillColor=#B2C9AB;strokeColor=#788AA3;fontColor=#46495D;strokeWidth=4;" vertex="1" parent="1">
          <mxGeometry x="30" y="-550" width="100" height="40" as="geometry" />
        </mxCell>
        <mxCell id="_cYdw8GzFOG9qHdIJb85-136" value="" style="group;fontColor=#46495D;" vertex="1" connectable="0" parent="1">
          <mxGeometry x="45" y="-440" width="85" height="40" as="geometry" />
        </mxCell>
        <mxCell id="_cYdw8GzFOG9qHdIJb85-79" value="" style="endArrow=classic;html=1;exitX=0.5;exitY=1;exitDx=0;exitDy=0;strokeColor=#788AA3;fontColor=#46495D;" edge="1" parent="_cYdw8GzFOG9qHdIJb85-136">
          <mxGeometry width="50" height="50" relative="1" as="geometry">
            <mxPoint as="sourcePoint" />
            <mxPoint x="35" y="40" as="targetPoint" />
          </mxGeometry>
        </mxCell>
        <mxCell id="_cYdw8GzFOG9qHdIJb85-80" value="" style="endArrow=classic;html=1;entryX=0.25;entryY=0;entryDx=0;entryDy=0;exitX=0.5;exitY=1;exitDx=0;exitDy=0;strokeColor=#788AA3;fontColor=#46495D;" edge="1" parent="_cYdw8GzFOG9qHdIJb85-136">
          <mxGeometry width="50" height="50" relative="1" as="geometry">
            <mxPoint x="85" as="sourcePoint" />
            <mxPoint x="50" y="40" as="targetPoint" />
          </mxGeometry>
        </mxCell>
        <mxCell id="_cYdw8GzFOG9qHdIJb85-137" value="" style="group;fontColor=#46495D;" vertex="1" connectable="0" parent="1">
          <mxGeometry x="127.5" y="-360" width="85" height="40" as="geometry" />
        </mxCell>
        <mxCell id="_cYdw8GzFOG9qHdIJb85-138" value="" style="endArrow=classic;html=1;exitX=0.5;exitY=1;exitDx=0;exitDy=0;strokeColor=#788AA3;fontColor=#46495D;" edge="1" parent="_cYdw8GzFOG9qHdIJb85-137">
          <mxGeometry width="50" height="50" relative="1" as="geometry">
            <mxPoint as="sourcePoint" />
            <mxPoint x="35" y="40" as="targetPoint" />
          </mxGeometry>
        </mxCell>
        <mxCell id="_cYdw8GzFOG9qHdIJb85-139" value="" style="endArrow=classic;html=1;entryX=0.25;entryY=0;entryDx=0;entryDy=0;exitX=0.5;exitY=1;exitDx=0;exitDy=0;strokeColor=#788AA3;fontColor=#46495D;" edge="1" parent="_cYdw8GzFOG9qHdIJb85-137">
          <mxGeometry width="50" height="50" relative="1" as="geometry">
            <mxPoint x="85" as="sourcePoint" />
            <mxPoint x="50" y="40" as="targetPoint" />
          </mxGeometry>
        </mxCell>
        <mxCell id="_cYdw8GzFOG9qHdIJb85-140" value="" style="group;fontColor=#46495D;" vertex="1" connectable="0" parent="1">
          <mxGeometry x="322.5" y="-360" width="85" height="40" as="geometry" />
        </mxCell>
        <mxCell id="_cYdw8GzFOG9qHdIJb85-141" value="" style="endArrow=classic;html=1;exitX=0.5;exitY=1;exitDx=0;exitDy=0;strokeColor=#788AA3;fontColor=#46495D;" edge="1" parent="_cYdw8GzFOG9qHdIJb85-140">
          <mxGeometry width="50" height="50" relative="1" as="geometry">
            <mxPoint as="sourcePoint" />
            <mxPoint x="35" y="40" as="targetPoint" />
          </mxGeometry>
        </mxCell>
        <mxCell id="_cYdw8GzFOG9qHdIJb85-142" value="" style="endArrow=classic;html=1;entryX=0.25;entryY=0;entryDx=0;entryDy=0;exitX=0.5;exitY=1;exitDx=0;exitDy=0;strokeColor=#788AA3;fontColor=#46495D;" edge="1" parent="_cYdw8GzFOG9qHdIJb85-140">
          <mxGeometry width="50" height="50" relative="1" as="geometry">
            <mxPoint x="85" as="sourcePoint" />
            <mxPoint x="50" y="40" as="targetPoint" />
          </mxGeometry>
        </mxCell>
        <mxCell id="_cYdw8GzFOG9qHdIJb85-143" value="" style="group;fontColor=#46495D;" vertex="1" connectable="0" parent="1">
          <mxGeometry x="510" y="-360" width="85" height="40" as="geometry" />
        </mxCell>
        <mxCell id="_cYdw8GzFOG9qHdIJb85-144" value="" style="endArrow=classic;html=1;exitX=0.5;exitY=1;exitDx=0;exitDy=0;strokeColor=#788AA3;fontColor=#46495D;" edge="1" parent="_cYdw8GzFOG9qHdIJb85-143">
          <mxGeometry width="50" height="50" relative="1" as="geometry">
            <mxPoint as="sourcePoint" />
            <mxPoint x="35" y="40" as="targetPoint" />
          </mxGeometry>
        </mxCell>
        <mxCell id="_cYdw8GzFOG9qHdIJb85-145" value="" style="endArrow=classic;html=1;entryX=0.25;entryY=0;entryDx=0;entryDy=0;exitX=0.5;exitY=1;exitDx=0;exitDy=0;strokeColor=#788AA3;fontColor=#46495D;" edge="1" parent="_cYdw8GzFOG9qHdIJb85-143">
          <mxGeometry width="50" height="50" relative="1" as="geometry">
            <mxPoint x="85" as="sourcePoint" />
            <mxPoint x="50" y="40" as="targetPoint" />
          </mxGeometry>
        </mxCell>
        <mxCell id="_cYdw8GzFOG9qHdIJb85-146" value="" style="group;fontColor=#46495D;" vertex="1" connectable="0" parent="1">
          <mxGeometry x="695" y="-360" width="85" height="40" as="geometry" />
        </mxCell>
        <mxCell id="_cYdw8GzFOG9qHdIJb85-147" value="" style="endArrow=classic;html=1;exitX=0.5;exitY=1;exitDx=0;exitDy=0;strokeColor=#788AA3;fontColor=#46495D;" edge="1" parent="_cYdw8GzFOG9qHdIJb85-146">
          <mxGeometry width="50" height="50" relative="1" as="geometry">
            <mxPoint as="sourcePoint" />
            <mxPoint x="35" y="40" as="targetPoint" />
          </mxGeometry>
        </mxCell>
        <mxCell id="_cYdw8GzFOG9qHdIJb85-148" value="" style="endArrow=classic;html=1;entryX=0.25;entryY=0;entryDx=0;entryDy=0;exitX=0.5;exitY=1;exitDx=0;exitDy=0;strokeColor=#788AA3;fontColor=#46495D;" edge="1" parent="_cYdw8GzFOG9qHdIJb85-146">
          <mxGeometry width="50" height="50" relative="1" as="geometry">
            <mxPoint x="85" as="sourcePoint" />
            <mxPoint x="50" y="40" as="targetPoint" />
          </mxGeometry>
        </mxCell>
        <mxCell id="_cYdw8GzFOG9qHdIJb85-152" value="&lt;font style=&quot;font-size: 18px&quot;&gt;&lt;b&gt;10&lt;/b&gt;&lt;/font&gt;" style="rounded=0;whiteSpace=wrap;html=1;fillColor=#B2C9AB;strokeColor=#788AA3;fontColor=#46495D;" vertex="1" parent="1">
          <mxGeometry x="270" y="-240" width="60" height="40" as="geometry" />
        </mxCell>
        <mxCell id="_cYdw8GzFOG9qHdIJb85-153" value="&lt;font style=&quot;font-size: 18px&quot;&gt;&lt;b&gt;2&lt;/b&gt;&lt;/font&gt;" style="rounded=0;whiteSpace=wrap;html=1;fillColor=#B2C9AB;strokeColor=#788AA3;fontColor=#46495D;" vertex="1" parent="1">
          <mxGeometry x="150" y="-240" width="60" height="40" as="geometry" />
        </mxCell>
        <mxCell id="_cYdw8GzFOG9qHdIJb85-154" value="&lt;font style=&quot;font-size: 18px&quot;&gt;&lt;b&gt;10&lt;/b&gt;&lt;/font&gt;" style="rounded=0;whiteSpace=wrap;html=1;fillColor=#B2C9AB;strokeColor=#788AA3;fontColor=#46495D;" vertex="1" parent="1">
          <mxGeometry x="330" y="-240" width="60" height="40" as="geometry" />
        </mxCell>
        <mxCell id="_cYdw8GzFOG9qHdIJb85-155" value="&lt;font style=&quot;font-size: 18px&quot;&gt;&lt;b&gt;8&lt;/b&gt;&lt;/font&gt;" style="rounded=0;whiteSpace=wrap;html=1;fillColor=#B2C9AB;strokeColor=#788AA3;fontColor=#46495D;" vertex="1" parent="1">
          <mxGeometry x="210" y="-240" width="60" height="40" as="geometry" />
        </mxCell>
        <mxCell id="_cYdw8GzFOG9qHdIJb85-156" value="&lt;font style=&quot;font-size: 18px&quot;&gt;&lt;b&gt;12&lt;/b&gt;&lt;/font&gt;" style="rounded=0;whiteSpace=wrap;html=1;fillColor=#B2C9AB;strokeColor=#788AA3;fontColor=#46495D;" vertex="1" parent="1">
          <mxGeometry x="390" y="-240" width="60" height="40" as="geometry" />
        </mxCell>
        <mxCell id="_cYdw8GzFOG9qHdIJb85-157" value="" style="group;fontColor=#46495D;" vertex="1" connectable="0" parent="1">
          <mxGeometry x="270" y="-280" width="85" height="40" as="geometry" />
        </mxCell>
        <mxCell id="_cYdw8GzFOG9qHdIJb85-158" value="" style="endArrow=classic;html=1;exitX=0.5;exitY=1;exitDx=0;exitDy=0;strokeColor=#788AA3;fontColor=#46495D;" edge="1" parent="_cYdw8GzFOG9qHdIJb85-157">
          <mxGeometry width="50" height="50" relative="1" as="geometry">
            <mxPoint as="sourcePoint" />
            <mxPoint x="35" y="40" as="targetPoint" />
          </mxGeometry>
        </mxCell>
        <mxCell id="_cYdw8GzFOG9qHdIJb85-159" value="" style="endArrow=classic;html=1;entryX=0.25;entryY=0;entryDx=0;entryDy=0;exitX=0.5;exitY=1;exitDx=0;exitDy=0;strokeColor=#788AA3;fontColor=#46495D;" edge="1" parent="_cYdw8GzFOG9qHdIJb85-157">
          <mxGeometry width="50" height="50" relative="1" as="geometry">
            <mxPoint x="85" as="sourcePoint" />
            <mxPoint x="50" y="40" as="targetPoint" />
          </mxGeometry>
        </mxCell>
        <mxCell id="_cYdw8GzFOG9qHdIJb85-160" value="&lt;font style=&quot;font-size: 18px&quot;&gt;&lt;b&gt;5&lt;/b&gt;&lt;/font&gt;" style="rounded=0;whiteSpace=wrap;html=1;fillColor=#B2C9AB;strokeColor=#788AA3;fontColor=#46495D;" vertex="1" parent="1">
          <mxGeometry x="550" y="-240" width="60" height="40" as="geometry" />
        </mxCell>
        <mxCell id="_cYdw8GzFOG9qHdIJb85-161" value="&lt;font style=&quot;font-size: 18px&quot;&gt;&lt;b&gt;9&lt;/b&gt;&lt;/font&gt;" style="rounded=0;whiteSpace=wrap;html=1;fillColor=#B2C9AB;strokeColor=#788AA3;fontColor=#46495D;" vertex="1" parent="1">
          <mxGeometry x="670" y="-240" width="60" height="40" as="geometry" />
        </mxCell>
        <mxCell id="_cYdw8GzFOG9qHdIJb85-162" value="&lt;font style=&quot;font-size: 18px&quot;&gt;&lt;b&gt;6&lt;/b&gt;&lt;/font&gt;" style="rounded=0;whiteSpace=wrap;html=1;fillColor=#B2C9AB;strokeColor=#788AA3;fontColor=#46495D;" vertex="1" parent="1">
          <mxGeometry x="610" y="-240" width="60" height="40" as="geometry" />
        </mxCell>
        <mxCell id="_cYdw8GzFOG9qHdIJb85-163" value="&lt;font style=&quot;font-size: 18px&quot;&gt;&lt;b&gt;3&lt;/b&gt;&lt;/font&gt;" style="rounded=0;whiteSpace=wrap;html=1;fillColor=#B2C9AB;strokeColor=#788AA3;fontColor=#46495D;" vertex="1" parent="1">
          <mxGeometry x="490" y="-240" width="60" height="40" as="geometry" />
        </mxCell>
        <mxCell id="_cYdw8GzFOG9qHdIJb85-164" value="" style="group;fontColor=#46495D;" vertex="1" connectable="0" parent="1">
          <mxGeometry x="587.5" y="-280" width="85" height="40" as="geometry" />
        </mxCell>
        <mxCell id="_cYdw8GzFOG9qHdIJb85-165" value="" style="endArrow=classic;html=1;exitX=0.5;exitY=1;exitDx=0;exitDy=0;strokeColor=#788AA3;fontColor=#46495D;" edge="1" parent="_cYdw8GzFOG9qHdIJb85-164">
          <mxGeometry width="50" height="50" relative="1" as="geometry">
            <mxPoint as="sourcePoint" />
            <mxPoint x="35" y="40" as="targetPoint" />
          </mxGeometry>
        </mxCell>
        <mxCell id="_cYdw8GzFOG9qHdIJb85-166" value="" style="endArrow=classic;html=1;entryX=0.25;entryY=0;entryDx=0;entryDy=0;exitX=0.5;exitY=1;exitDx=0;exitDy=0;strokeColor=#788AA3;fontColor=#46495D;" edge="1" parent="_cYdw8GzFOG9qHdIJb85-164">
          <mxGeometry width="50" height="50" relative="1" as="geometry">
            <mxPoint x="85" as="sourcePoint" />
            <mxPoint x="50" y="40" as="targetPoint" />
          </mxGeometry>
        </mxCell>
        <mxCell id="_cYdw8GzFOG9qHdIJb85-167" value="&lt;font style=&quot;font-size: 18px&quot;&gt;&lt;b&gt;10&lt;/b&gt;&lt;/font&gt;" style="rounded=0;whiteSpace=wrap;html=1;fillColor=#B2C9AB;strokeColor=#788AA3;fontColor=#46495D;" vertex="1" parent="1">
          <mxGeometry x="532.5" y="-160" width="60" height="40" as="geometry" />
        </mxCell>
        <mxCell id="_cYdw8GzFOG9qHdIJb85-168" value="&lt;font style=&quot;font-size: 18px&quot;&gt;&lt;b&gt;2&lt;/b&gt;&lt;/font&gt;" style="rounded=0;whiteSpace=wrap;html=1;fillColor=#B2C9AB;strokeColor=#788AA3;fontColor=#46495D;" vertex="1" parent="1">
          <mxGeometry x="170" y="-160" width="60" height="40" as="geometry" />
        </mxCell>
        <mxCell id="_cYdw8GzFOG9qHdIJb85-169" value="&lt;font style=&quot;font-size: 18px&quot;&gt;&lt;b&gt;10&lt;/b&gt;&lt;/font&gt;" style="rounded=0;whiteSpace=wrap;html=1;fillColor=#B2C9AB;strokeColor=#788AA3;fontColor=#46495D;" vertex="1" parent="1">
          <mxGeometry x="592.5" y="-160" width="60" height="40" as="geometry" />
        </mxCell>
        <mxCell id="_cYdw8GzFOG9qHdIJb85-170" value="&lt;font style=&quot;font-size: 18px&quot;&gt;&lt;b&gt;8&lt;/b&gt;&lt;/font&gt;" style="rounded=0;whiteSpace=wrap;html=1;fillColor=#B2C9AB;strokeColor=#788AA3;fontColor=#46495D;" vertex="1" parent="1">
          <mxGeometry x="412.5" y="-160" width="60" height="40" as="geometry" />
        </mxCell>
        <mxCell id="_cYdw8GzFOG9qHdIJb85-171" value="&lt;font style=&quot;font-size: 18px&quot;&gt;&lt;b&gt;12&lt;/b&gt;&lt;/font&gt;" style="rounded=0;whiteSpace=wrap;html=1;fillColor=#B2C9AB;strokeColor=#788AA3;fontColor=#46495D;" vertex="1" parent="1">
          <mxGeometry x="652.5" y="-160" width="60" height="40" as="geometry" />
        </mxCell>
        <mxCell id="_cYdw8GzFOG9qHdIJb85-172" value="&lt;font style=&quot;font-size: 18px&quot;&gt;&lt;b&gt;5&lt;/b&gt;&lt;/font&gt;" style="rounded=0;whiteSpace=wrap;html=1;fillColor=#B2C9AB;strokeColor=#788AA3;fontColor=#46495D;" vertex="1" parent="1">
          <mxGeometry x="292.5" y="-160" width="60" height="40" as="geometry" />
        </mxCell>
        <mxCell id="_cYdw8GzFOG9qHdIJb85-173" value="&lt;font style=&quot;font-size: 18px&quot;&gt;&lt;b&gt;9&lt;/b&gt;&lt;/font&gt;" style="rounded=0;whiteSpace=wrap;html=1;fillColor=#B2C9AB;strokeColor=#788AA3;fontColor=#46495D;" vertex="1" parent="1">
          <mxGeometry x="472.5" y="-160" width="60" height="40" as="geometry" />
        </mxCell>
        <mxCell id="_cYdw8GzFOG9qHdIJb85-174" value="&lt;font style=&quot;font-size: 18px&quot;&gt;&lt;b&gt;6&lt;/b&gt;&lt;/font&gt;" style="rounded=0;whiteSpace=wrap;html=1;fillColor=#B2C9AB;strokeColor=#788AA3;fontColor=#46495D;" vertex="1" parent="1">
          <mxGeometry x="352.5" y="-160" width="60" height="40" as="geometry" />
        </mxCell>
        <mxCell id="_cYdw8GzFOG9qHdIJb85-175" value="&lt;font style=&quot;font-size: 18px&quot;&gt;&lt;b&gt;3&lt;/b&gt;&lt;/font&gt;" style="rounded=0;whiteSpace=wrap;html=1;fillColor=#B2C9AB;strokeColor=#788AA3;fontColor=#46495D;" vertex="1" parent="1">
          <mxGeometry x="232.5" y="-160" width="60" height="40" as="geometry" />
        </mxCell>
        <mxCell id="_cYdw8GzFOG9qHdIJb85-177" value="" style="group;fontColor=#46495D;" vertex="1" connectable="0" parent="1">
          <mxGeometry x="425" y="-200" width="85" height="40" as="geometry" />
        </mxCell>
        <mxCell id="_cYdw8GzFOG9qHdIJb85-178" value="" style="endArrow=classic;html=1;exitX=0.5;exitY=1;exitDx=0;exitDy=0;strokeColor=#788AA3;fontColor=#46495D;" edge="1" parent="_cYdw8GzFOG9qHdIJb85-177">
          <mxGeometry width="50" height="50" relative="1" as="geometry">
            <mxPoint as="sourcePoint" />
            <mxPoint x="35" y="40" as="targetPoint" />
          </mxGeometry>
        </mxCell>
        <mxCell id="_cYdw8GzFOG9qHdIJb85-179" value="" style="endArrow=classic;html=1;entryX=0.25;entryY=0;entryDx=0;entryDy=0;exitX=0.5;exitY=1;exitDx=0;exitDy=0;strokeColor=#788AA3;fontColor=#46495D;" edge="1" parent="_cYdw8GzFOG9qHdIJb85-177">
          <mxGeometry width="50" height="50" relative="1" as="geometry">
            <mxPoint x="85" as="sourcePoint" />
            <mxPoint x="50" y="40" as="targetPoint" />
          </mxGeometry>
        </mxCell>
        <mxCell id="_cYdw8GzFOG9qHdIJb85-183" value="&lt;h1&gt;Merge Sort&lt;/h1&gt;&lt;p&gt;&lt;b&gt;Feedback 5 ASD (Kelompok 4)&lt;/b&gt;&lt;br&gt;by: Ahmad Rolandi Hernafahreza&lt;br&gt;&amp;nbsp; &amp;nbsp; &amp;nbsp; 205150207111006&lt;br&gt;&lt;/p&gt;" style="text;html=1;spacing=5;spacingTop=-20;whiteSpace=wrap;overflow=hidden;rounded=0;sketch=0;fillColor=#B2C9AB;strokeColor=#788AA3;strokeWidth=3;fontColor=#46495D;" vertex="1" parent="1">
          <mxGeometry x="650" y="-1090" width="190" height="100" as="geometry" />
        </mxCell>
      </root>
    </mxGraphModel>
  </diagram>
</mxfile>
